<?xml version="1.0" encoding="UTF-8" standalone="no"?>
<!-- Created with Inkscape (http://www.inkscape.org/) -->

<svg
   width="500"
   height="500"
   viewBox="0 0 132.29166 132.29167"
   version="1.1"
   id="svg39262"
   xmlns="http://www.w3.org/2000/svg"
   xmlns:svg="http://www.w3.org/2000/svg">
  <defs
     id="defs39259" />
  <g
     id="layer1">
    <path
       id="circle7729"
       style="color:#000000;fill:#ffffff;-inkscape-stroke:none"
       d="M 66.14635 0 C 29.622477 0 -5.0132687e-15 29.622477 0 66.14635 C 0 102.67022 29.622477 132.29115 66.14635 132.29115 C 102.67022 132.29115 132.29115 102.67022 132.29115 66.14635 C 132.29115 29.622477 102.67022 -5.0132687e-15 66.14635 0 z M 66.14635 1.2459188 C 101.99635 1.2459189 131.04471 30.29635 131.04471 66.14635 C 131.04471 101.99635 101.99635 131.04471 66.14635 131.04471 C 30.29635 131.04471 1.2459188 101.99635 1.2459188 66.14635 C 1.2459189 30.29635 30.29635 1.2459188 66.14635 1.2459188 z M 66.14635 3.8380086 C 31.741835 3.8380086 3.8380086 31.741835 3.8380086 66.14635 C 3.8380086 100.55087 31.741835 128.45521 66.14635 128.45521 C 100.55087 128.45521 128.45521 100.55087 128.45521 66.14635 C 128.45521 31.741835 100.55087 3.8380086 66.14635 3.8380086 z M 66.14635 5.0839274 C 99.877156 5.0839274 127.20722 32.415545 127.20722 66.14635 C 127.20722 99.877156 99.877156 127.20722 66.14635 127.20722 C 32.415545 127.20722 5.0839274 99.877156 5.0839274 66.14635 C 5.0839274 32.415545 32.415545 5.0839274 66.14635 5.0839274 z M 63.181156 7.6114217 L 63.066435 13.491166 C 63.042141 14.739026 63.373936 15.711709 64.061723 16.408818 C 64.749511 17.10592 65.759357 17.467062 67.090995 17.492989 C 68.021378 17.511102 68.79802 17.365155 69.421602 17.05529 C 70.045272 16.741011 70.517289 16.289592 70.837537 15.700334 C 71.157863 15.106663 71.326099 14.404298 71.341899 13.592969 L 71.45507 7.7721354 L 68.842826 7.7214925 L 68.732239 13.383162 C 68.723311 13.84174 68.663379 14.21558 68.551888 14.504541 C 68.444806 14.793587 68.277651 15.00423 68.05011 15.136544 C 67.822655 15.264428 67.530321 15.324861 67.173161 15.317928 C 66.674899 15.308227 66.300484 15.146324 66.050749 14.832686 C 65.801011 14.519051 65.682942 14.020629 65.696248 13.33717 L 65.806836 7.6625814 L 63.181156 7.6114217 z M 59.100785 7.9607544 L 56.522648 8.4589152 L 57.20271 11.979631 L 54.221497 12.555306 L 53.540918 9.0351074 L 50.962264 9.5332682 L 52.797294 19.029329 L 55.375948 18.531169 L 54.627673 14.660087 L 57.609403 14.083895 L 58.357161 17.954976 L 60.935815 17.456816 L 59.100785 7.9607544 z M 77.530151 8.7234985 L 72.28551 17.484721 L 75.083789 18.126025 L 75.965906 16.468762 L 79.028768 17.170528 L 79.088196 19.043799 L 81.873556 19.682003 L 80.928394 9.5022624 L 77.530151 8.7234985 z M 78.889242 10.670667 C 78.88297 10.895457 78.880435 11.184243 78.880973 11.53728 C 78.886747 11.887007 78.894414 12.228462 78.904228 12.56099 C 78.914948 12.889223 78.922365 13.142097 78.926965 13.3196 L 78.978642 14.960327 L 76.973596 14.500407 L 77.734273 13.046232 C 77.837444 12.852696 77.960783 12.609328 78.104793 12.316561 C 78.253101 12.024779 78.397664 11.729911 78.538359 11.43186 C 78.684336 11.130497 78.801296 10.876739 78.889242 10.670667 z M 43.608708 12.174451 L 41.207821 13.238985 L 45.127995 22.080306 L 47.528882 21.015771 L 43.608708 12.174451 z M 92.136495 14.228589 C 91.677992 14.234292 91.23811 14.31644 90.816679 14.474052 C 90.256842 14.680311 89.741877 15.00299 89.272587 15.442468 C 88.80719 15.884024 88.402174 16.427915 88.057674 17.073893 C 87.596961 17.937792 87.3306 18.770307 87.25824 19.571415 C 87.189772 20.374598 87.350961 21.11768 87.741414 21.800736 C 88.137837 22.481978 88.799112 23.069497 89.725273 23.56342 C 90.168896 23.800003 90.606939 23.985857 91.039404 24.121525 C 91.475763 24.259262 91.927135 24.34541 92.393844 24.37939 L 93.433573 22.429639 C 92.996701 22.386588 92.573005 22.323255 92.16285 22.239469 C 91.756587 22.157761 91.362887 22.014966 90.981527 21.811589 C 90.56125 21.587455 90.26086 21.307539 90.08029 20.97133 C 89.903617 20.637195 89.844683 20.25066 89.903556 19.812227 C 89.962435 19.373798 90.134963 18.886285 90.421354 18.349268 C 90.633035 17.952341 90.861182 17.619137 91.105033 17.349329 C 91.354853 17.077704 91.613747 16.873431 91.88173 16.736446 C 92.149714 16.599486 92.420903 16.531574 92.695117 16.532841 C 92.971406 16.53024 93.245404 16.601512 93.517806 16.746781 C 93.875819 16.937709 94.187492 17.168926 94.452633 17.440279 C 94.717772 17.711632 94.966389 18.004363 95.19884 18.318262 L 96.873674 16.879073 C 96.549897 16.436504 96.183381 16.046366 95.773999 15.708085 C 95.370582 15.367989 94.962278 15.087809 94.549784 14.867826 C 93.884349 14.512956 93.234843 14.306326 92.601066 14.248226 C 92.444113 14.233248 92.289329 14.226688 92.136495 14.228589 z M 38.576457 14.484387 L 33.659444 17.449581 L 38.653455 25.731763 L 43.570984 22.766569 L 42.470793 20.942391 L 39.79137 22.558313 L 38.848275 20.994584 L 41.329777 19.498551 L 40.246639 17.702795 L 37.765653 19.198828 L 36.979655 17.896065 L 39.659595 16.280143 L 38.576457 14.484387 z M 99.888993 18.224211 L 96.172424 22.782072 C 95.383668 23.749339 95.045023 24.719042 95.156466 25.691972 C 95.267908 26.664901 95.839398 27.572574 96.871606 28.414286 C 97.592786 29.002372 98.294421 29.366552 98.976388 29.507243 C 99.661148 29.644516 100.31167 29.580293 100.92717 29.313973 C 101.54549 29.044236 102.11088 28.594628 102.62371 27.965735 L 106.30256 23.454382 L 104.27736 21.802804 L 100.69876 26.191166 C 100.4089 26.546628 100.13121 26.804003 99.865222 26.962695 C 99.602664 27.124172 99.340971 27.186467 99.080257 27.150281 C 98.822328 27.110675 98.555089 26.97813 98.278239 26.752372 C 97.891941 26.437429 97.696845 26.079444 97.693778 25.678536 C 97.690639 25.277628 97.905145 24.81253 98.33715 24.282756 L 101.92453 19.884058 L 99.888993 18.224211 z M 66.14635 19.343522 C 40.30539 19.343522 19.343522 40.30539 19.343522 66.14635 C 19.343522 91.987311 40.30539 112.94918 66.14635 112.94918 C 91.987311 112.94918 112.94918 91.987311 112.94918 66.14635 C 112.94918 40.30539 91.987311 19.343522 66.14635 19.343522 z M 30.171802 19.719727 L 27.630355 22.106144 L 30.889071 28.465963 L 30.850313 28.502136 L 24.679114 24.877551 L 22.142318 27.259318 L 28.763102 34.31005 L 30.450854 32.725134 L 27.575061 29.662789 C 27.348635 29.42167 27.106925 29.176801 26.849524 28.928467 C 26.592124 28.680134 26.34984 28.45112 26.122437 28.24117 C 25.898246 28.028201 25.717504 27.861712 25.580868 27.741976 L 25.624276 27.701152 L 31.834749 31.424955 L 33.648075 29.722217 L 30.311328 23.317957 L 30.354736 23.277649 C 30.468872 23.418518 30.626605 23.608858 30.828092 23.84919 C 31.029779 24.083293 31.246822 24.333281 31.478699 24.599532 C 31.710769 24.85955 31.930813 25.100657 32.139124 25.322485 L 35.041789 28.41377 L 36.792586 26.769942 L 30.171802 19.719727 z M 66.14635 20.589958 C 91.313442 20.589958 111.70119 40.979259 111.70119 66.14635 C 111.70119 91.313442 91.313442 111.70119 66.14635 111.70119 C 40.979259 111.70119 20.589958 91.313442 20.589958 66.14635 C 20.589958 40.979259 40.979259 20.589958 66.14635 20.589958 z M 109.0197 26.257829 L 101.5907 32.450732 L 103.26398 34.457845 L 105.72843 32.40319 L 106.19869 32.967497 C 106.63923 33.495952 107.07998 33.880449 107.5216 34.120915 C 107.96604 34.364804 108.40076 34.493498 108.8254 34.506938 C 109.25287 34.523804 109.66199 34.449688 110.05271 34.284729 C 110.44627 34.123163 110.81209 33.90101 111.15084 33.61862 C 111.90622 32.988868 112.29306 32.268014 112.31046 31.455444 C 112.33064 30.646265 111.9478 29.770464 111.16272 28.828731 L 109.0197 26.257829 z M 109.0719 29.61628 L 109.50391 30.134595 C 109.74678 30.425921 109.85137 30.702925 109.8181 30.966069 C 109.78822 31.226386 109.65652 31.453859 109.42278 31.648714 C 109.1992 31.835099 108.98185 31.939347 108.7701 31.96084 C 108.56459 31.982901 108.3688 31.944854 108.18358 31.846635 C 108.00173 31.74559 107.83874 31.608571 107.69472 31.435807 L 107.36451 31.039449 L 109.0719 29.61628 z M 66.297245 37.305216 C 60.885106 37.235411 55.825657 40.690067 54.064917 46.159973 C 53.629913 47.505142 53.436113 48.867286 53.44635 50.208822 C 48.334938 48.496459 42.503031 50.209357 39.168669 54.83748 C 35.042625 60.563517 36.303174 68.574292 41.975732 72.736129 C 43.111487 73.563233 44.337973 74.172902 45.607035 74.57736 C 42.40874 78.945518 42.224122 85.080102 45.558459 89.708219 C 49.679111 95.432444 57.619456 96.695824 63.293811 92.542155 C 64.425972 91.711438 65.382208 90.718926 66.154102 89.629154 C 69.290299 94.046393 75.007943 96.116155 80.401294 94.34928 C 87.06908 92.162467 90.723742 84.938139 88.552218 78.208663 C 88.119863 76.859851 87.484729 75.641644 86.693933 74.561857 C 91.823374 72.919494 95.550112 68.07532 95.55179 62.353817 C 95.55179 55.281671 89.868291 49.545813 82.856441 49.545813 C 81.451346 49.545813 80.100715 49.775031 78.840666 50.19952 C 78.880276 44.769757 75.458694 39.699332 70.064457 37.935152 C 68.814076 37.525131 67.546203 37.321328 66.297245 37.305216 z M 67.664087 49.483285 C 67.703647 49.480285 67.744251 49.499624 67.757621 49.548914 C 69.043912 54.444133 67.782818 58.974618 66.463127 63.674666 C 68.146522 60.577811 69.550192 56.691522 69.579732 53.410693 C 69.580215 53.297834 69.750322 53.302416 69.753365 53.414311 C 69.814535 56.007443 68.95165 58.230477 68.08835 60.64126 C 67.627925 61.930822 67.162633 63.194611 66.444523 64.326823 L 66.650195 64.912834 L 66.849666 64.909733 C 70.223454 61.510586 74.283606 58.663551 78.430872 56.364001 C 78.540454 56.302786 78.634989 56.475993 78.522856 56.535567 C 74.293772 58.850321 70.68721 61.725396 67.151457 64.901465 L 67.841854 64.886995 C 70.377581 62.340353 73.749866 60.901691 76.973079 59.296639 C 77.059559 59.253309 77.131872 59.384288 77.04491 59.429447 C 73.814145 61.078262 70.86216 62.604977 68.240796 64.931954 C 68.263956 64.947054 68.285261 64.969016 68.303841 64.995516 C 69.553755 64.357861 70.834009 63.778705 72.152702 63.300012 C 74.409805 62.479237 76.786815 62.08613 79.029285 61.214868 C 79.123095 61.179978 79.199735 61.316829 79.102665 61.355428 C 77.085681 62.188086 74.945646 62.602885 72.905627 63.357373 C 71.266331 63.964192 69.716046 64.741236 68.134859 65.459054 L 67.778292 65.731388 C 69.808495 65.412042 71.86507 65.24519 73.909184 65.062179 C 76.917415 64.79077 79.409283 63.902605 81.925749 62.237545 C 82.023419 62.172765 82.10556 62.330162 82.011532 62.397225 C 77.587838 65.472323 72.525455 65.692439 67.314754 66.084338 L 67.11425 66.237301 L 67.216569 66.529272 C 69.316125 67.238801 71.173316 68.643188 72.979525 69.894958 C 74.449923 70.911989 75.691071 71.980733 76.718831 73.453398 C 76.773441 73.533598 76.636033 73.635008 76.578271 73.554167 C 74.618748 70.929489 71.16132 68.64642 67.968461 67.165926 C 71.823325 70.140232 75.536899 73.043864 77.406645 77.727039 C 77.449175 77.834522 77.29304 77.922979 77.247998 77.813855 C 76.06498 75.038978 74.474795 72.924019 72.113944 71.040625 C 70.536565 69.784164 68.938158 68.532993 67.443945 67.176261 L 67.584505 67.581405 C 67.591005 67.604345 67.587505 67.631166 67.584505 67.657886 C 68.594272 69.300326 69.533144 70.980998 70.783276 72.474129 C 72.023908 73.956316 73.316922 75.390847 74.404244 76.994267 C 74.460734 77.079287 74.323505 77.152239 74.264718 77.070748 C 72.737668 74.915591 70.819597 73.08161 69.243319 70.959493 C 68.541947 70.015515 67.920967 68.98988 67.344727 67.944173 C 67.328117 67.947673 67.309562 67.941806 67.287882 67.942106 C 68.188903 71.363879 69.82125 74.286326 71.624569 77.468656 C 71.672569 77.554576 71.541204 77.624424 71.491243 77.54152 C 69.666886 74.393046 67.622913 71.302727 66.930282 67.734884 L 66.353056 67.336975 C 67.559414 71.978622 68.989881 76.40396 71.262317 80.699467 C 71.322897 80.812292 71.14999 80.905669 71.090751 80.793001 C 68.880575 76.558062 67.050118 71.904137 66.115344 67.172127 L 65.993905 67.088928 L 65.471456 67.486837 C 65.445916 69.108115 65.000763 70.674999 64.629647 72.282926 C 64.113279 74.529783 63.549306 76.564746 62.224626 78.473763 C 62.159876 78.565173 62.014835 78.475909 62.076314 78.381779 C 63.859459 75.626769 64.831142 71.611311 65.131942 68.098169 C 63.64389 72.748044 62.199257 77.224373 58.428992 80.600248 C 58.341672 80.678938 58.216291 80.547665 58.303935 80.468473 C 60.543649 78.368123 61.962961 76.141102 62.940861 73.229639 C 63.53094 71.472632 64.109348 69.70934 64.795011 67.987065 C 64.708971 68.022055 64.613115 68.012243 64.536112 67.958643 C 64.526412 67.951643 64.517791 67.943195 64.509241 67.934355 C 63.607056 69.060346 62.677884 70.163756 61.875293 71.370321 C 60.548242 73.379691 59.502911 75.552102 58.100846 77.513615 C 58.041056 77.596345 57.908244 77.51393 57.965971 77.428866 C 59.48075 75.213468 60.487002 72.706255 62.056677 70.523344 C 62.782982 69.514898 63.559475 68.543635 64.372815 67.603109 C 61.353854 69.645927 59.13488 72.20749 56.69163 75.080172 C 56.62829 75.155142 56.526449 75.043561 56.588794 74.970101 C 59.003607 72.073239 61.284986 68.991729 64.582104 67.132853 L 64.80483 66.39078 C 60.693882 69.198841 56.907901 72.113589 53.53265 75.84705 C 53.44849 75.94071 53.314805 75.797174 53.398291 75.702356 C 56.683141 72.112337 60.522813 68.738184 64.745919 66.225932 L 64.156291 65.819238 C 62.560332 66.41567 60.836934 66.520152 59.131274 66.733911 C 56.880712 67.01443 54.747109 67.169839 52.530644 66.585083 C 52.420655 66.555593 52.473977 66.391674 52.581287 66.418685 C 55.819463 67.160714 59.871915 66.703009 63.297428 65.769112 C 58.415582 65.957491 53.702116 66.124536 49.234721 63.743913 C 49.130689 63.688163 49.227726 63.537047 49.331356 63.590434 C 54.015645 65.949026 58.670179 65.256503 63.615755 65.429598 C 63.575425 65.378108 63.557909 65.31189 63.565629 65.245113 C 61.793185 64.654929 60.046719 63.975848 58.202649 63.618856 C 56.136658 63.218707 54.055031 62.950532 52.025248 62.384823 C 51.927948 62.357883 51.974821 62.205832 52.072791 62.233927 C 54.412462 62.831685 56.829834 62.954822 59.175716 63.527905 C 60.642512 63.886318 62.077997 64.353158 63.486564 64.890613 C 60.541047 62.763854 57.36212 61.535017 53.849943 60.236633 C 53.757913 60.201643 53.800698 60.059793 53.893868 60.091939 C 57.483252 61.378865 61.160241 62.478033 64.053971 64.973812 L 64.877694 64.955208 C 60.808927 62.030453 56.754122 59.442153 52.054704 57.531889 C 51.939882 57.485609 51.994225 57.297079 52.112065 57.345337 C 56.66975 59.226993 61.191086 61.707996 65.027555 64.866325 C 62.933986 60.485094 61.61411 55.615765 60.860368 50.869246 C 60.842178 50.743201 61.032917 50.698719 61.052087 50.823254 C 61.811564 55.798205 63.36582 60.316919 65.24873 64.925753 L 65.471456 64.182646 C 63.743768 60.815185 63.539554 56.986818 63.118628 53.240161 C 63.108388 53.143711 63.253994 53.107179 63.265389 53.202954 C 63.721194 56.940299 64.161033 60.294138 65.548971 63.65658 C 65.348475 62.161011 65.223605 60.651694 65.232194 59.147811 C 65.245114 56.735967 65.662082 54.357574 65.623385 51.94515 C 65.623125 51.842226 65.776745 51.846907 65.782031 51.948767 C 65.871041 54.358594 65.531461 56.747038 65.548971 59.154529 C 65.559711 60.578044 65.722177 61.987304 65.849727 63.399748 C 65.866337 63.396248 65.886452 63.387169 65.908122 63.386829 C 65.997842 63.388029 66.081952 63.428251 66.134465 63.49845 C 66.508641 61.714358 66.98737 59.951634 67.455831 58.189213 C 68.243306 55.222001 68.286565 52.580006 67.574687 49.593872 L 67.580888 49.591805 C 67.564778 49.528735 67.613237 49.487178 67.664087 49.483285 z " />
  </g>
</svg>
