<?xml version="1.0" encoding="UTF-8" standalone="no"?>
<!-- Created with Inkscape (http://www.inkscape.org/) -->

<svg
   width="500"
   height="500"
   viewBox="0 0 132.29166 132.29167"
   version="1.1"
   id="svg39262"
   sodipodi:docname="logo_mei-hua-cup_one-blosom_white_filled-purple-bg-avatar.svg"
   inkscape:export-filename="logo_mei-hua-cup_one-blosom_white_filled-purple-bg.png"
   inkscape:export-xdpi="96"
   inkscape:export-ydpi="96"
   inkscape:version="1.2.2 (b0a8486541, 2022-12-01)"
   xmlns:inkscape="http://www.inkscape.org/namespaces/inkscape"
   xmlns:sodipodi="http://sodipodi.sourceforge.net/DTD/sodipodi-0.dtd"
   xmlns:xlink="http://www.w3.org/1999/xlink"
   xmlns="http://www.w3.org/2000/svg"
   xmlns:svg="http://www.w3.org/2000/svg">
  <sodipodi:namedview
     id="namedview7784"
     pagecolor="#ffffff"
     bordercolor="#000000"
     borderopacity="0.25"
     inkscape:showpageshadow="2"
     inkscape:pageopacity="0.0"
     inkscape:pagecheckerboard="0"
     inkscape:deskcolor="#d1d1d1"
     showgrid="false"
     inkscape:zoom="1.1752115"
     inkscape:cx="188.90217"
     inkscape:cy="247.18955"
     inkscape:window-width="1920"
     inkscape:window-height="1019"
     inkscape:window-x="0"
     inkscape:window-y="0"
     inkscape:window-maximized="1"
     inkscape:current-layer="svg39262" />
  <defs
     id="defs39259">
    <linearGradient
       inkscape:collect="always"
       id="linearGradient11412">
      <stop
         style="stop-color:#53269b;stop-opacity:1;"
         offset="0"
         id="stop11408" />
      <stop
         style="stop-color:#9b49b2;stop-opacity:1;"
         offset="1"
         id="stop11410" />
    </linearGradient>
    <linearGradient
       inkscape:collect="always"
       xlink:href="#linearGradient11412"
       id="linearGradient11414"
       x1="1.9666765"
       y1="130.65514"
       x2="126.52467"
       y2="9.0051966"
       gradientUnits="userSpaceOnUse" />
  </defs>
  <rect
     style="fill:url(#linearGradient11414);stroke-width:0.864315;fill-opacity:1"
     id="rect11004"
     width="132.29167"
     height="132.29167"
     x="0"
     y="0" />
  <g
     id="layer1"
     transform="matrix(0.77163528,0,0,0.77178964,15.105573,15.095363)">
    <path
       id="circle7729"
       style="color:#000000;fill:#ffffff;-inkscape-stroke:none"
       d="M 66.14635,0 C 29.622477,0 0,29.622477 0,66.14635 c 0,36.52387 29.622477,66.1448 66.14635,66.1448 36.52387,0 66.1448,-29.62093 66.1448,-66.1448 C 132.29115,29.622477 102.67022,0 66.14635,0 Z m 0,1.2459188 c 35.85,10e-8 64.89836,29.0504312 64.89836,64.9004312 0,35.85 -29.04836,64.89836 -64.89836,64.89836 -35.85,0 -64.9004312,-29.04836 -64.9004312,-64.89836 10e-8,-35.85 29.0504312,-64.9004312 64.9004312,-64.9004312 z m 0,2.5920898 c -34.404515,0 -62.3083414,27.9038264 -62.3083414,62.3083414 0,34.40452 27.9038264,62.30886 62.3083414,62.30886 34.40452,0 62.30886,-27.90434 62.30886,-62.30886 0,-34.404515 -27.90434,-62.3083414 -62.30886,-62.3083414 z m 0,1.2459188 c 33.730806,0 61.06087,27.3316176 61.06087,61.0624226 0,33.730806 -27.330064,61.06087 -61.06087,61.06087 -33.730805,0 -61.0624226,-27.330064 -61.0624226,-61.06087 0,-33.730805 27.3316176,-61.0624226 61.0624226,-61.0624226 z m -2.965194,2.5274943 -0.114721,5.8797443 c -0.02429,1.24786 0.307501,2.220543 0.995288,2.917652 0.687788,0.697102 1.697634,1.058244 3.029272,1.084171 0.930383,0.01811 1.707025,-0.127834 2.330607,-0.437699 0.62367,-0.314279 1.095687,-0.765698 1.415935,-1.354956 0.320326,-0.593671 0.488562,-1.296036 0.504362,-2.107365 L 71.45507,7.7721354 68.842826,7.7214925 68.732239,13.383162 c -0.0089,0.458578 -0.06886,0.832418 -0.180351,1.121379 -0.107082,0.289046 -0.274237,0.499689 -0.501778,0.632003 -0.227455,0.127884 -0.519789,0.188317 -0.876949,0.181384 -0.498262,-0.0097 -0.872677,-0.171604 -1.122412,-0.485242 -0.249738,-0.313635 -0.367807,-0.812057 -0.354501,-1.495516 l 0.110588,-5.6745886 z m -4.080371,0.3493327 -2.578137,0.4981608 0.680062,3.5207158 -2.981213,0.575675 -0.680579,-3.5201986 -2.578654,0.4981608 1.83503,9.4960608 2.578654,-0.49816 -0.748275,-3.871082 2.98173,-0.576192 0.747758,3.871081 2.578654,-0.49816 z m 18.429366,0.7627441 -5.244641,8.7612225 2.798279,0.641304 0.882117,-1.657263 3.062862,0.701766 0.05943,1.873271 2.78536,0.638204 -0.945162,-10.1797406 z m 1.359091,1.9471685 c -0.0063,0.22479 -0.0088,0.513576 -0.0083,0.866613 0.0058,0.349727 0.01344,0.691182 0.02326,1.02371 0.01072,0.328233 0.01814,0.581107 0.02274,0.75861 l 0.05168,1.640727 -2.005046,-0.45992 0.760677,-1.454175 c 0.103171,-0.193536 0.22651,-0.436904 0.37052,-0.729671 0.148308,-0.291782 0.292871,-0.58665 0.433566,-0.884701 0.145977,-0.301363 0.262937,-0.555121 0.350883,-0.761193 z m -35.280534,1.503784 -2.400887,1.064534 3.920174,8.841321 2.400887,-1.064535 z m 48.527787,2.054138 c -0.458503,0.0057 -0.898385,0.08785 -1.319816,0.245463 -0.559837,0.206259 -1.074802,0.528938 -1.544092,0.968416 -0.465397,0.441556 -0.870413,0.985447 -1.214913,1.631425 -0.460713,0.863899 -0.727074,1.696414 -0.799434,2.497522 -0.06847,0.803183 0.09272,1.546265 0.483174,2.229321 0.396423,0.681242 1.057698,1.268761 1.983859,1.762684 0.443623,0.236583 0.881666,0.422437 1.314131,0.558105 0.436359,0.137737 0.887731,0.223885 1.35444,0.257865 l 1.039729,-1.949751 c -0.436872,-0.04305 -0.860568,-0.106384 -1.270723,-0.19017 -0.406263,-0.08171 -0.799963,-0.224503 -1.181323,-0.42788 -0.420277,-0.224134 -0.720667,-0.50405 -0.901237,-0.840259 -0.176673,-0.334135 -0.235607,-0.72067 -0.176734,-1.159103 0.05888,-0.438429 0.231407,-0.925942 0.517798,-1.462959 0.211681,-0.396927 0.439828,-0.730131 0.683679,-0.999939 0.24982,-0.271625 0.508714,-0.475898 0.776697,-0.612883 0.267984,-0.13696 0.539173,-0.204872 0.813387,-0.203605 0.276289,-0.0026 0.550287,0.06867 0.822689,0.21394 0.358013,0.190928 0.669686,0.422145 0.934827,0.693498 0.265139,0.271353 0.513756,0.564084 0.746207,0.877983 l 1.674834,-1.439189 c -0.323777,-0.442569 -0.690293,-0.832707 -1.099675,-1.170988 -0.403417,-0.340096 -0.811721,-0.620276 -1.224215,-0.840259 -0.665435,-0.35487 -1.314941,-0.5615 -1.948718,-0.6196 -0.156953,-0.01498 -0.311737,-0.02154 -0.464571,-0.01964 z m -53.560038,0.255798 -4.917013,2.965194 4.994011,8.282182 4.917529,-2.965194 -1.100191,-1.824178 -2.679423,1.615922 -0.943095,-1.563729 2.481502,-1.496033 -1.083138,-1.795756 -2.480986,1.496033 -0.785998,-1.302763 2.67994,-1.615922 z m 61.312536,3.739824 -3.716569,4.557861 c -0.788756,0.967267 -1.127401,1.93697 -1.015958,2.9099 0.111442,0.972929 0.682932,1.880602 1.71514,2.722314 0.72118,0.588086 1.422815,0.952266 2.104782,1.092957 0.68476,0.137273 1.335282,0.07305 1.950782,-0.19327 0.61832,-0.269737 1.18371,-0.719345 1.69654,-1.348238 l 3.67885,-4.511353 -2.0252,-1.651578 -3.5786,4.388362 c -0.28986,0.355462 -0.56755,0.612837 -0.833538,0.771529 -0.262558,0.161477 -0.524251,0.223772 -0.784965,0.187586 -0.257929,-0.03961 -0.525168,-0.172151 -0.802018,-0.397909 -0.386298,-0.314943 -0.581394,-0.672928 -0.584461,-1.073836 -0.0031,-0.400908 0.211367,-0.866006 0.643372,-1.39578 l 3.58738,-4.398698 z M 66.14635,19.343522 c -25.84096,0 -46.802828,20.961868 -46.802828,46.802828 0,25.840961 20.961868,46.80283 46.802828,46.80283 25.840961,0 46.80283,-20.961869 46.80283,-46.80283 0,-25.84096 -20.961869,-46.802828 -46.80283,-46.802828 z m -35.974548,0.376205 -2.541447,2.386417 3.258716,6.359819 -0.03876,0.03617 -6.171199,-3.624585 -2.536796,2.381767 6.620784,7.050732 1.687752,-1.584916 -2.875793,-3.062345 C 27.348635,29.42167 27.106925,29.176801 26.849524,28.928467 26.592124,28.680134 26.34984,28.45112 26.122437,28.24117 25.898246,28.028201 25.717504,27.861712 25.580868,27.741976 l 0.04341,-0.04082 6.210473,3.723803 1.813326,-1.702738 -3.336747,-6.40426 0.04341,-0.04031 c 0.114136,0.140869 0.271869,0.331209 0.473356,0.571541 0.201687,0.234103 0.41873,0.484091 0.650607,0.750342 0.23207,0.260018 0.452114,0.501125 0.660425,0.722953 l 2.902665,3.091285 1.750797,-1.643828 z m 35.974548,0.870231 c 25.167092,0 45.55484,20.389301 45.55484,45.556392 0,25.167092 -20.387748,45.55484 -45.55484,45.55484 -25.167091,0 -45.556392,-20.387748 -45.556392,-45.55484 0,-25.167091 20.389301,-45.556392 45.556392,-45.556392 z m 42.87335,5.667871 -7.429,6.192903 1.67328,2.007113 2.46445,-2.054655 0.47026,0.564307 c 0.44054,0.528455 0.88129,0.912952 1.32291,1.153418 0.44444,0.243889 0.87916,0.372583 1.3038,0.386023 0.42747,0.01687 0.83659,-0.05725 1.22731,-0.222209 0.39356,-0.161566 0.75938,-0.383719 1.09813,-0.666109 0.75538,-0.629752 1.14222,-1.350606 1.15962,-2.163176 0.0202,-0.809179 -0.36266,-1.68498 -1.14774,-2.626713 z m 0.0522,3.358451 0.43201,0.518315 c 0.24287,0.291326 0.34746,0.56833 0.31419,0.831474 -0.0299,0.260317 -0.16158,0.48779 -0.39532,0.682645 -0.22358,0.186385 -0.44093,0.290633 -0.65268,0.312126 -0.20551,0.02206 -0.4013,-0.01599 -0.58652,-0.114205 -0.18185,-0.101045 -0.34484,-0.238064 -0.48886,-0.410828 l -0.33021,-0.396358 z m -42.774655,7.688936 c -5.412139,-0.06981 -10.471588,3.384851 -12.232328,8.854757 -0.435004,1.345169 -0.628804,2.707313 -0.618567,4.048849 -5.111412,-1.712363 -10.943319,5.35e-4 -14.277681,4.628658 -4.126044,5.726037 -2.865495,13.736812 2.807063,17.898649 1.135755,0.827104 2.362241,1.436773 3.631303,1.841231 -3.198295,4.368158 -3.382913,10.502742 -0.04858,15.130859 4.120652,5.724225 12.060997,6.987605 17.735352,2.833936 1.132161,-0.830717 2.088397,-1.823229 2.860291,-2.913001 3.136197,4.417239 8.853841,6.487001 14.247192,4.720126 6.667786,-2.186813 10.322448,-9.411141 8.150924,-16.140617 -0.432355,-1.348812 -1.067489,-2.567019 -1.858285,-3.646806 5.129441,-1.642363 8.856179,-6.486537 8.857857,-12.20804 0,-7.072146 -5.683499,-12.808004 -12.695349,-12.808004 -1.405095,0 -2.755726,0.229218 -4.015775,0.653707 0.03961,-5.429763 -3.381972,-10.500188 -8.776209,-12.264368 -1.250381,-0.410021 -2.518254,-0.613824 -3.767212,-0.629936 z m 1.366842,12.178069 c 0.03956,-0.003 0.08016,0.01634 0.09353,0.06563 1.286291,4.895219 0.0252,9.425704 -1.294494,14.125752 1.683395,-3.096855 3.087065,-6.983144 3.116605,-10.263973 4.83e-4,-0.112859 0.17059,-0.108277 0.173633,0.0036 0.06117,2.593132 -0.801715,4.816166 -1.665015,7.226949 -0.460425,1.289562 -0.925717,2.553351 -1.643827,3.685563 l 0.205672,0.586011 0.199471,-0.0031 c 3.373788,-3.399147 7.43394,-6.246182 11.581206,-8.545732 0.109582,-0.06122 0.204117,0.111992 0.09198,0.171566 -4.229084,2.314754 -7.835646,5.189829 -11.371399,8.365898 l 0.690397,-0.01447 c 2.535727,-2.546642 5.908012,-3.985304 9.131225,-5.590356 0.08648,-0.04333 0.158793,0.08765 0.07183,0.132808 -3.230765,1.648815 -6.18275,3.17553 -8.804114,5.502507 0.02316,0.0151 0.04447,0.03706 0.06305,0.06356 1.249914,-0.637655 2.530168,-1.216811 3.848861,-1.695504 2.257103,-0.820775 4.634113,-1.213882 6.876583,-2.085144 0.09381,-0.03489 0.17045,0.101961 0.07338,0.14056 -2.016984,0.832658 -4.157019,1.247457 -6.197038,2.001945 -1.639296,0.606819 -3.189581,1.383863 -4.770768,2.101681 l -0.356567,0.272334 c 2.030203,-0.319346 4.086778,-0.486198 6.130892,-0.669209 3.008231,-0.271409 5.500099,-1.159574 8.016565,-2.824634 0.09767,-0.06478 0.179811,0.09262 0.08578,0.15968 -4.423694,3.075098 -9.486077,3.295214 -14.696778,3.687113 l -0.200504,0.152963 0.102319,0.291971 c 2.099556,0.709529 3.956747,2.113916 5.762956,3.365686 1.470398,1.017031 2.711546,2.085775 3.739306,3.55844 0.05461,0.0802 -0.0828,0.18161 -0.14056,0.100769 -1.959523,-2.624678 -5.416951,-4.907747 -8.60981,-6.388241 3.854864,2.974306 7.568438,5.877938 9.438184,10.561113 0.04253,0.107483 -0.113605,0.19594 -0.158647,0.08682 -1.183018,-2.774877 -2.773203,-4.889836 -5.134054,-6.77323 -1.577379,-1.256461 -3.175786,-2.507632 -4.669999,-3.864364 l 0.14056,0.405144 c 0.0065,0.02294 0.003,0.04976 0,0.07648 1.009767,1.64244 1.948639,3.323112 3.198771,4.816243 1.240632,1.482187 2.533646,2.916718 3.620968,4.520138 0.05649,0.08502 -0.08074,0.157972 -0.139526,0.07648 -1.52705,-2.155157 -3.445121,-3.989138 -5.021399,-6.111255 -0.701372,-0.943978 -1.322352,-1.969613 -1.898592,-3.01532 -0.01661,0.0035 -0.03517,-0.0024 -0.05685,-0.0021 0.901021,3.421773 2.533368,6.34422 4.336687,9.52655 0.048,0.08592 -0.08337,0.155768 -0.133326,0.07286 -1.824357,-3.148474 -3.86833,-6.238793 -4.560961,-9.806636 l -0.577226,-0.397909 c 1.206358,4.641647 2.636825,9.066985 4.909261,13.362492 0.06058,0.112825 -0.112327,0.206202 -0.171566,0.09353 C 68.880563,76.558005 67.050106,71.90408 66.115332,67.17207 l -0.121439,-0.0832 -0.522449,0.397909 c -0.02554,1.621278 -0.470693,3.188162 -0.841809,4.796089 -0.516368,2.246857 -1.080341,4.28182 -2.405021,6.190837 -0.06475,0.09141 -0.209791,0.0021 -0.148312,-0.09198 1.783145,-2.75501 2.754828,-6.770468 3.055628,-10.28361 -1.488052,4.649875 -2.932685,9.126204 -6.70295,12.502079 -0.08732,0.07869 -0.212701,-0.05258 -0.125057,-0.131775 2.239714,-2.10035 3.659026,-4.327371 4.636926,-7.238834 0.590079,-1.757007 1.168487,-3.520299 1.85415,-5.242574 -0.08604,0.03499 -0.181896,0.02518 -0.258899,-0.02842 -0.0097,-0.007 -0.01832,-0.01545 -0.02687,-0.02429 -0.902185,1.125991 -1.831357,2.229401 -2.633948,3.435966 -1.327051,2.00937 -2.372382,4.181781 -3.774447,6.143294 -0.05979,0.08273 -0.192602,3.15e-4 -0.134875,-0.08475 1.514779,-2.215398 2.521031,-4.722611 4.090706,-6.905522 0.726305,-1.008446 1.502798,-1.979709 2.316138,-2.920235 -3.018961,2.042818 -5.237935,4.604381 -7.681185,7.477063 -0.06334,0.07497 -0.165181,-0.03661 -0.102836,-0.110071 2.414813,-2.896862 4.696192,-5.978372 7.99331,-7.837248 L 64.80483,66.39078 c -4.110948,2.808061 -7.896929,5.722809 -11.27218,9.45627 -0.08416,0.09366 -0.217845,-0.04988 -0.134359,-0.144694 3.28485,-3.590019 7.124522,-6.964172 11.347628,-9.476424 l -0.589628,-0.406694 c -1.595959,0.596432 -3.319357,0.700914 -5.025017,0.914673 -2.250562,0.280519 -4.384165,0.435928 -6.60063,-0.148828 -0.109989,-0.02949 -0.05667,-0.193409 0.05064,-0.166398 3.238176,0.742029 7.290628,0.284324 10.716141,-0.649573 -4.881846,0.188379 -9.595312,0.355424 -14.062707,-2.025199 -0.104032,-0.05575 -0.007,-0.206866 0.09663,-0.153479 4.684289,2.358592 9.338823,1.666069 14.284399,1.839164 -0.04033,-0.05149 -0.05785,-0.117708 -0.05013,-0.184485 -1.772444,-0.590184 -3.51891,-1.269265 -5.36298,-1.626257 -2.065991,-0.400149 -4.147618,-0.668324 -6.177401,-1.234033 -0.0973,-0.02694 -0.05043,-0.178991 0.04754,-0.150896 2.339671,0.597758 4.757043,0.720895 7.102925,1.293978 1.466796,0.358413 2.902281,0.825253 4.310848,1.362708 -2.945517,-2.126759 -6.124444,-3.355596 -9.636621,-4.65398 -0.09203,-0.03499 -0.04925,-0.17684 0.04392,-0.144694 3.589384,1.286926 7.266373,2.386094 10.160103,4.881873 l 0.823723,-0.0186 c -4.068767,-2.924755 -8.123572,-5.513055 -12.82299,-7.423319 -0.114822,-0.04628 -0.06048,-0.23481 0.05736,-0.186552 4.557685,1.881656 9.079021,4.362659 12.91549,7.520988 -2.093569,-4.381231 -3.413445,-9.25056 -4.167187,-13.997079 -0.01819,-0.126045 0.172549,-0.170527 0.191719,-0.04599 0.759477,4.974951 2.313733,9.493665 4.196643,14.102499 l 0.222726,-0.743107 c -1.727688,-3.367461 -1.931902,-7.195828 -2.352828,-10.942485 -0.01024,-0.09645 0.135366,-0.132982 0.146761,-0.03721 0.455805,3.737345 0.895644,7.091184 2.283582,10.453626 -0.200496,-1.495569 -0.325366,-3.004886 -0.316777,-4.508769 0.01292,-2.411844 0.429888,-4.790237 0.391191,-7.202661 -2.6e-4,-0.102924 0.15336,-0.09824 0.158646,0.0036 0.08901,2.409827 -0.25057,4.798271 -0.23306,7.205762 0.01074,1.423515 0.173206,2.832775 0.300756,4.245219 0.01661,-0.0035 0.03673,-0.01258 0.0584,-0.01292 0.08972,0.0012 0.17383,0.04142 0.226343,0.111621 0.374176,-1.784092 0.852905,-3.546816 1.321366,-5.309237 0.787475,-2.967212 0.830734,-5.609207 0.118856,-8.595341 l 0.0062,-0.0021 c -0.01611,-0.06307 0.03235,-0.104627 0.0832,-0.10852 z" />
  </g>
</svg>
